ffmpeg started on 2025-06-07 at 18:03:42
Report written to "D:\Convert\FFMetrics\reports\psnr_report-6.txt"
Log level: 32
Command line:
ffmpeg -hide_banner -nostdin -i "G:\\\xc0\xed\xe8\xec\xe5\\\xce\xed\xe3\xee\xe8\xed\xe3\xe8\\!_36_\xce\xf1\xe5\xed\xfc_2024\\DreamCast\\\xdf \xed\xe5 \xec\xee\xe3\xf3 \xef\xee\xe9\xec\xe0\xf2\xfc \xea\xee\xf2\xe0\\[DC] Neko Nanka Yondemo Konai - 06_Telegram_HEVC.mkv" -i "G:\\\xc0\xed\xe8\xec\xe5\\\xce\xed\xe3\xee\xe8\xed\xe3\xe8\\!_36_\xce\xf1\xe5\xed\xfc_2024\\DreamCast\\\xdf \xed\xe5 \xec\xee\xe3\xf3 \xef\xee\xe9\xec\xe0\xf2\xfc \xea\xee\xf2\xe0\\[DC] Neko Nanka Yondemo Konai - 06_Telegram.mp4" -lavfi "[0:v]settb=AVTB,setpts=PTS-STARTPTS,format=pix_fmts=yuv420p10,fps=24000/1001,scale=1280:720:flags=bicubic[main];[1:v]settb=AVTB,setpts=PTS-STARTPTS,format=pix_fmts=yuv420p,fps=24000/1001,scale=1280:720:flags=bicubic[ref];[main][ref]psnr=eof_action=endall:stats_file='D\\:/Convert/FFMetrics/logs/psnr_logfile-6.txt'" -f null -
Input #0, matroska,webm, from 'G:\Аниме\Онгоинги\!_36_Осень_2024\DreamCast\Я не могу поймать кота\[DC] Neko Nanka Yondemo Konai - 06_Telegram_HEVC.mkv':
  Metadata:
    COMPATIBLE_BRANDS: isomiso2avc1mp41
    MAJOR_BRAND     : isom
    MINOR_VERSION   : 512
    ENCODER         : Lavf61.7.100
  Duration: 00:01:36.64, start: -0.021000, bitrate: 802 kb/s
  Stream #0:0: Video: hevc (Main 10), yuv420p10le(tv, bt709, progressive), 1920x1080 [SAR 1:1 DAR 16:9], 23.98 fps, 23.98 tbr, 1k tbn (default)
      Metadata:
        HANDLER_NAME    : VideoHandler
        VENDOR_ID       : [0][0][0][0]
        ENCODER         : Lavc61.19.100 libx265
        BPS             : 606429
        DURATION        : 00:01:36.554708333
        NUMBER_OF_FRAMES: 2315
        NUMBER_OF_BYTES : 7319146
        _STATISTICS_WRITING_APP: mkvpropedit v66.0.0 ('Josie') 64-bit
        _STATISTICS_WRITING_DATE_UTC: 2025-06-06 09:16:48
        _STATISTICS_TAGS: BPS DURATION NUMBER_OF_FRAMES NUMBER_OF_BYTES
  Stream #0:1: Audio: aac (LC), 48000 Hz, stereo, fltp (default)
      Metadata:
        HANDLER_NAME    : SoundHandler
        VENDOR_ID       : [0][0][0][0]
        ENCODER         : Lavc61.19.100 aac
        BPS             : 192368
        DURATION        : 00:01:36.640000000
        NUMBER_OF_FRAMES: 4531
        NUMBER_OF_BYTES : 2323806
        _STATISTICS_WRITING_APP: mkvpropedit v66.0.0 ('Josie') 64-bit
        _STATISTICS_WRITING_DATE_UTC: 2025-06-06 09:16:48
        _STATISTICS_TAGS: BPS DURATION NUMBER_OF_FRAMES NUMBER_OF_BYTES
Input #1, mov,mp4,m4a,3gp,3g2,mj2, from 'G:\Аниме\Онгоинги\!_36_Осень_2024\DreamCast\Я не могу поймать кота\[DC] Neko Nanka Yondemo Konai - 06_Telegram.mp4':
  Metadata:
    major_brand     : isom
    minor_version   : 512
    compatible_brands: isomiso2avc1mp41
    encoder         : Lavf60.16.100
  Duration: 00:01:36.62, start: 0.000000, bitrate: 1895 kb/s
  Stream #1:0[0x1](und): Video: h264 (High) (avc1 / 0x31637661), yuv420p(tv, bt709, progressive), 1280x720 [SAR 1:1 DAR 16:9], 1747 kb/s, 23.98 fps, 23.98 tbr, 24k tbn (default)
      Metadata:
        handler_name    : VideoHandler
        vendor_id       : [0][0][0][0]
        encoder         : Lavc60.31.102 h264_qsv
  Stream #1:1[0x2](und): Audio: aac (HE-AACv2) (mp4a / 0x6134706D), 48000 Hz, stereo, fltp, 144 kb/s (default)
      Metadata:
        handler_name    : SoundHandler
        vendor_id       : [0][0][0][0]
Stream mapping:
  Stream #0:0 (hevc) -> settb:default
  Stream #1:0 (h264) -> settb:default
  psnr:default -> Stream #0:0 (wrapped_avframe)
  Stream #0:1 -> #0:1 (aac (native) -> pcm_s16le (native))
Output #0, null, to 'pipe:':
  Metadata:
    COMPATIBLE_BRANDS: isomiso2avc1mp41
    MAJOR_BRAND     : isom
    MINOR_VERSION   : 512
    encoder         : Lavf61.7.100
  Stream #0:0: Video: wrapped_avframe, yuv420p10le(tv, bt709, progressive), 1280x720 [SAR 1:1 DAR 16:9], q=2-31, 200 kb/s, 23.98 fps, 23.98 tbn
      Metadata:
        encoder         : Lavc61.19.100 wrapped_avframe
  Stream #0:1: Audio: pcm_s16le, 48000 Hz, stereo, s16, 1536 kb/s (default)
      Metadata:
        HANDLER_NAME    : SoundHandler
        VENDOR_ID       : [0][0][0][0]
        _STATISTICS_TAGS: BPS DURATION NUMBER_OF_FRAMES NUMBER_OF_BYTES
        BPS             : 192368
        DURATION        : 00:01:36.640000000
        NUMBER_OF_FRAMES: 4531
        NUMBER_OF_BYTES : 2323806
        _STATISTICS_WRITING_APP: mkvpropedit v66.0.0 ('Josie') 64-bit
        _STATISTICS_WRITING_DATE_UTC: 2025-06-06 09:16:48
        encoder         : Lavc61.19.100 pcm_s16le
frame=  221 fps=0.0 q=-0.0 size=N/A time=00:00:09.21 bitrate=N/A speed=  18x    frame=  579 fps=560 q=-0.0 size=N/A time=00:00:24.14 bitrate=N/A speed=23.4x    frame=  863 fps=557 q=-0.0 size=N/A time=00:00:35.99 bitrate=N/A speed=23.2x    frame= 1194 fps=580 q=-0.0 size=N/A time=00:00:49.79 bitrate=N/A speed=24.2x    frame= 1529 fps=593 q=-0.0 size=N/A time=00:01:03.77 bitrate=N/A speed=24.7x    frame= 1875 fps=607 q=-0.0 size=N/A time=00:01:18.20 bitrate=N/A speed=25.3x    frame= 2207 fps=611 q=-0.0 size=N/A time=00:01:32.05 bitrate=N/A speed=25.5x    [Parsed_psnr_10 @ 000002246b663c00] PSNR y:44.517114 u:52.353792 v:53.023111 average:45.958268 min:42.466780 max:inf
[out#0/null @ 0000022457fc0ec0] video:995KiB audio:18124KiB subtitle:0KiB other streams:0KiB global headers:0KiB muxing overhead: unknown
frame= 2315 fps=614 q=-0.0 Lsize=N/A time=00:01:36.55 bitrate=N/A speed=25.6x    
